<svg xmlns="http://www.w3.org/2000/svg" xmlns:xlink="http://www.w3.org/1999/xlink" viewBox="0,0,256,256" width="48px" height="48px" fill-rule="nonzero"><defs><linearGradient x1="27.068" y1="7.254" x2="23.068" y2="29.087" gradientUnits="userSpaceOnUse" id="color-1"><stop offset="0" stop-color="#000000"></stop><stop offset="0.339" stop-color="#000000"></stop><stop offset="1" stop-color="#000000"></stop></linearGradient><linearGradient x1="23.524" y1="41.334" x2="24.024" y2="28.501" gradientUnits="userSpaceOnUse" id="color-2"><stop offset="0" stop-color="#000000"></stop><stop offset="0.258" stop-color="#000000"></stop><stop offset="1" stop-color="#000000"></stop></linearGradient><linearGradient x1="26.625" y1="22.458" x2="21.625" y2="27.458" gradientUnits="userSpaceOnUse" id="color-3"><stop offset="0.305" stop-color="#ffffff"></stop><stop offset="0.704" stop-color="#ffffff"></stop><stop offset="0.865" stop-color="#ffffff"></stop></linearGradient></defs><g fill="none" fill-rule="nonzero" stroke="none" stroke-width="1" stroke-linecap="butt" stroke-linejoin="miter" stroke-miterlimit="10" stroke-dasharray="" stroke-dashoffset="0" font-family="none" font-weight="none" font-size="none" text-anchor="none" style="mix-blend-mode: normal"><g transform="scale(5.33333,5.33333)"><path d="M30,42h-12c-6.627,0 -12,-5.373 -12,-12v-12c0,-6.627 5.373,-12 12,-12h24v24c0,6.627 -5.373,12 -12,12z" fill="url(#color-1)"></path><rect x="6" y="26" width="36" height="6" fill="#000000" opacity="0.05"></rect><rect x="6" y="27" width="36" height="6" fill="#000000" opacity="0.07"></rect><path d="M30,42h-12c-6.627,0 -12,-5.373 -12,-12v-2h36v2c0,6.627 -5.373,12 -12,12z" fill="url(#color-2)"></path><path d="M34.464,30.528v0l-0.347,-1.965l-16.167,-16.167c-0.756,-0.756 -2.074,-0.756 -2.828,0l-3.536,3.535c-0.378,0.378 -0.586,0.881 -0.586,1.416c0,0.534 0.208,1.036 0.586,1.412l16.171,16.172l7.709,1.289z" fill="#000000" opacity="0.05"></path><path d="M33.652,28.806l-16.056,-16.057c-0.567,-0.566 -1.556,-0.566 -2.121,0l-3.536,3.535c-0.284,0.283 -0.439,0.661 -0.439,1.062c0,0.401 0.156,0.777 0.439,1.06l16.058,16.059l2.775,0.465v-0.001l4.078,0.682z" fill="#000000" opacity="0.07"></path><path d="M33.812,32.595l0.424,2.405l-2.423,-0.405zM12.293,18.052l15.945,15.945l2.363,0.395l3,-3l-0.413,-2.345l-15.945,-15.945c-0.391,-0.391 -1.024,-0.391 -1.414,0l-3.536,3.536c-0.391,0.39 -0.391,1.024 0,1.414z" fill="url(#color-3)"></path></g></g></svg>